<?xml version="1.0" encoding="utf-8"?>
<!-- Generator: Adobe Illustrator 21.1.0, SVG Export Plug-In . SVG Version: 6.00 Build 0)  -->
<svg version="1.1" id="Layer_1" xmlns="http://www.w3.org/2000/svg" xmlns:xlink="http://www.w3.org/1999/xlink" x="0px" y="0px"
	 viewBox="0 0 92.8 129.8" style="enable-background:new 0 0 92.8 129.8;" xml:space="preserve">
<style type="text/css">
	.st0{opacity:0.25;enable-background:new    ;}
	.st1{fill:#F9EABB;}
</style>
<g class="st0">
	<path class="st1" d="M48.3,26.7c0.1,1.8-0.3,3.6-0.6,5.3c-0.4,1.7-0.9,3.4-1.5,5.1c-1.1,3.4-2.4,6.7-3.9,9.9
		c-2.9,6.5-6.3,12.7-9.9,18.8c-0.9,1.5-1.8,3-2.6,4.5c-0.8,1.5-1.5,3.1-2.3,4.7c-1.5,3.1-2.7,6.4-3.3,9.7c-0.3,1.6-0.4,3.3-0.3,5
		c0.2,1.6,0.6,3.3,1.1,5c1.1,3.3,2.9,6.3,5.2,8.9c-2.8-2.1-5.1-5.1-6.6-8.4c-0.7-1.7-1.3-3.4-1.7-5.2c-0.3-1.9-0.3-3.7-0.1-5.6
		c0.4-3.7,1.7-7.1,3-10.4c0.7-1.6,1.4-3.3,2.3-4.9c0.8-1.6,1.7-3.2,2.6-4.7l2.7-4.5l2.6-4.6l2.6-4.6c0.8-1.5,1.7-3.1,2.5-4.6
		c1.6-3.1,3.2-6.2,4.7-9.4c0.7-1.6,1.4-3.2,2-4.8C47.4,30.1,48,28.5,48.3,26.7z"/>
</g>
</svg>
