<?xml version="1.0" encoding="utf-8"?>
<!-- Generator: Adobe Illustrator 21.1.0, SVG Export Plug-In . SVG Version: 6.00 Build 0)  -->
<svg version="1.1" id="Layer_1" xmlns="http://www.w3.org/2000/svg" xmlns:xlink="http://www.w3.org/1999/xlink" x="0px" y="0px"
	 viewBox="0 0 92.8 129.8" style="enable-background:new 0 0 92.8 129.8;" xml:space="preserve">
<style type="text/css">
	.st0{opacity:0.87;fill:none;stroke:#FBAE23;stroke-width:6;stroke-miterlimit:10;enable-background:new    ;}
</style>
<path class="st0" d="M67.3,87.9c0.4,1.8,0.7,3.6,0.8,5.4c0.3,7.4-3.3,14.8-9.3,19.2c-6,4.3-14.2,5.4-21.1,2.8S25.4,106.3,24,99
	c-1-5.4,0-10.9,1.9-16.1c1.9-5.1,4.6-9.9,7.2-14.7c3.7-7,7.1-14.2,9.9-21.7c1.5-4,3.1-8.4,3-12.7c1.5,5.2,3.5,10.4,5.4,15.5
	s4,10.2,6.1,15.2c1.6,3.7,3.2,7.4,4.9,11C64.3,79.6,66.3,83.7,67.3,87.9z"/>
</svg>
