<?xml version="1.0" encoding="utf-8"?>
<!-- Generator: Adobe Illustrator 21.1.0, SVG Export Plug-In . SVG Version: 6.00 Build 0)  -->
<svg version="1.1" id="Layer_1" xmlns="http://www.w3.org/2000/svg" xmlns:xlink="http://www.w3.org/1999/xlink" x="0px" y="0px"
	 viewBox="0 0 1024 535" style="enable-background:new 0 0 1024 535;" xml:space="preserve">
<style type="text/css">
	.st0{fill:#00AEEF;}
	.st1{opacity:0.56;fill:#014D7C;}
	.st2{fill:#014D7C;}
	.st3{fill:none;}
	.st4{fill:#FFFFFF;}
	.st5{font-family:'Raleway-ExtraBold';}
	.st6{font-size:32px;}
	.st7{font-family:'Raleway-Medium';}
	.st8{font-size:20px;}
	.st9{font-family:'Raleway';}
	.st10{font-size:16px;}
</style>
<rect x="-1" y="0.1" class="st0" width="1026" height="534"/>
<rect x="145.6" y="187.1" class="st1" width="301.6" height="231.4"/>
<rect x="145.3" y="179" class="st2" width="301.6" height="48.6"/>
<rect x="573.9" y="187" class="st1" width="301.6" height="231.4"/>
<rect x="99.3" y="83.2" class="st3" width="826.2" height="31.6"/>
<text transform="matrix(1 0 0 1 330.1896 106.5121)" class="st4 st5 st6">Determinants of Health</text>
<rect x="573.6" y="178.9" class="st2" width="301.6" height="48.6"/>
<rect x="172.1" y="196.4" class="st3" width="254.2" height="15.4"/>
<text transform="matrix(1 0 0 1 263.6137 210.9825)" class="st4 st7 st8">SOCIAL</text>
<rect x="597.1" y="196.4" class="st3" width="254.2" height="15.4"/>
<text transform="matrix(1 0 0 1 671.1462 210.9825)" class="st4 st7 st8">CULTURAL</text>
<rect x="172.4" y="261.7" class="st3" width="254.2" height="116.1"/>
<text transform="matrix(1 0 0 1 234.9744 273.3342)"><tspan x="0" y="0" class="st4 st9 st10">Gender-Sexuality</tspan><tspan x="10.7" y="19.2" class="st4 st9 st10">Race-Ethnicity</tspan><tspan x="-18" y="38.4" class="st4 st9 st10">Socioeconomic Status</tspan><tspan x="3.8" y="57.6" class="st4 st9 st10">Migratory Status</tspan><tspan x="45" y="76.8" class="st4 st9 st10">Laws</tspan></text>
<rect x="597.4" y="261.7" class="st3" width="254.2" height="116.1"/>
<text transform="matrix(1 0 0 1 679.7872 273.3342)"><tspan x="0" y="0" class="st4 st9 st10">Food Habits</tspan><tspan x="-65.1" y="19.2" class="st4 st9 st10">Prevention/Health Treatment</tspan><tspan x="-61.1" y="38.4" class="st4 st9 st10">Views on Health/Life/Death</tspan><tspan x="7.3" y="57.6" class="st4 st9 st10">Language</tspan><tspan x="13.8" y="76.8" class="st4 st9 st10">Hygiene</tspan></text>
</svg>
