<?xml version="1.0" encoding="utf-8"?>
<!-- Generator: Adobe Illustrator 19.2.1, SVG Export Plug-In . SVG Version: 6.00 Build 0)  -->
<svg version="1.1" id="Layer_1" xmlns="http://www.w3.org/2000/svg" xmlns:xlink="http://www.w3.org/1999/xlink" x="0px" y="0px"
	 viewBox="0 0 1130 768" style="enable-background:new 0 0 1130 768;" xml:space="preserve">
<style type="text/css">
	.st0{fill:#00AEEF;}
	.st1{fill:#FFFFFF;}
	.st2{fill:none;}
	.st3{font-family:'Avenir-Light';}
	.st4{font-size:97.672px;}
</style>
<path class="st0" d="M361.9,477.9c0.9-23-16.3-42.8-35-56.1c-72.9-51.8-177.9-42.9-247-99.7C51,298.4,31,264.3,24.3,227.6
	C8.4,140.4,69.4,63.6,148.7,34.9c43.3-15.7,90.5-18.3,136.2-12.5c34.9,4.4,69.6,13.8,100.4,30.9s57.5,42.4,73.3,73.9
	c18.1,36.3,20.7,78.5,16.4,118.8C465.6,333.3,424.9,416.9,361.9,477.9z"/>
<g>
	<path class="st1" d="M210.6,179.4l-21.9,71.9c-0.8,2.4-1.8,5.6-1.8,7.2c0,2.2,0.9,3.4,3,3.4v3H157v-3c2,0,3-1.4,3-3.5
		c0-1.6-0.5-3-1.9-6.9l-8.3-23.4h-0.3l-8.5,23.3c-0.9,2.6-2.2,5.4-2.2,7.2c0,2.2,0.9,3.4,3,3.4v3h-32.6v-3c1.8,0,2.8-0.9,2.8-3.5
		c0-2.2-1.4-6.4-2.6-10.2l-20.7-67.4c-1.6-5.6-3.1-7.7-6.8-7.7v-3h38.7v3c-3.5,0-5.8,1.2-5.8,4.5c0,0.8,0.3,2.2,0.5,3.2l12.2,52.8
		h0.3l14.8-42.3h14.8l14.8,42.3h0.3l12.6-52.4c0.4-1.8,0.7-3.5,0.7-4.5c0-2.8-2-3.7-5-3.7v-3h36.4v3
		C213.5,173,212.3,173.9,210.6,179.4z"/>
	<path class="st1" d="M264.5,264.9v-3c3.5,0,5.3-1.5,5.3-4.1c0-0.8-0.5-2.6-0.8-3.4l-0.7-2.3c-3.8,1.4-9.3,2.2-14.6,2.2
		c-4.9,0-10.3-0.8-14.4-2.2l-0.9,2.6c-0.5,1.4-0.8,2.4-0.8,3.4c0,2.7,1.8,3.8,4.6,3.8v3h-35.1v-3c3.4,0,4.5-0.5,6.4-6.1l25.1-74.2
		c0.4-1.4,1.1-3.9,1.1-5.1c0-2.2-1.1-3.4-3.1-3.4v-3h35.9v3c-2,0-3.2,1.1-3.2,3.5c0,1.5,0.5,3.3,1.6,6.5l24.2,72.5
		c1.9,5.6,3.1,6.4,6.4,6.4v3H264.5z M253.7,196.6h-0.1l-9.7,37.1c2.6,0.8,7.3,1.6,10.4,1.6c3.3,0,7-0.5,9.3-1.6L253.7,196.6z"/>
	<path class="st1" d="M382.2,264.9v-3c3.7,0,5.3-2,5.3-7.7V212h-0.3l-21.5,42.8h-10.6L335,212h-0.4v42.1c0,5.8,1.6,7.7,5.4,7.7v3
		h-33.2v-3c3.7,0,5.4-1.8,5.4-7.7v-74.8c0-4.6-1.9-6.4-5.4-6.4v-3h33.3c0,1.6,0.7,3.9,2,6.6l19.8,41.2h0.3l20.6-41.2
		c1.4-2.7,2.4-5,2.3-6.6h30.3v3c-3.1,0-5.3,1.8-5.3,5.8v75.3c0,6,1.6,7.7,5.3,7.7v3H382.2z"/>
</g>
<rect x="539" y="95" class="st2" width="623.9" height="471.5"/>
<text transform="matrix(1 0 0 1 539.0296 168.8408)"><tspan x="0" y="0" class="st0 st3 st4">Wellness of </tspan><tspan x="0" y="117.2" class="st0 st3 st4">Adolescent</tspan><tspan x="0" y="234.4" class="st0 st3 st4">Migrants</tspan></text>
</svg>
